<?xml version="1.0" standalone="no"?>
<!DOCTYPE svg PUBLIC "-//W3C//DTD SVG 20010904//EN"
 "http://www.w3.org/TR/2001/REC-SVG-20010904/DTD/svg10.dtd">
<svg version="1.0" xmlns="http://www.w3.org/2000/svg"
 width="2133.000000pt" height="2133.000000pt" viewBox="0 0 2133.000000 2133.000000"
 preserveAspectRatio="xMidYMid meet">
<metadata>
Created by potrace 1.16, written by Peter Selinger 2001-2019
</metadata>
<g transform="translate(0.000000,2133.000000) scale(0.100000,-0.100000)"
fill="#5D5D5D" stroke="none">
<path d="M14047 19745 c-1036 -126 -1876 -880 -2102 -1890 -60 -267 -58 -226
-64 -1534 l-6 -1203 -165 -68 c-413 -168 -793 -365 -1170 -604 -352 -225 -672
-373 -1025 -475 -680 -196 -1363 -200 -2060 -10 -828 224 -1617 268 -2438 133
-792 -130 -1566 -439 -2232 -892 -308 -209 -525 -390 -811 -676 -288 -289
-480 -521 -691 -834 -964 -1434 -1210 -3238 -666 -4887 395 -1197 1194 -2236
2253 -2927 760 -497 1606 -792 2550 -890 199 -21 873 -17 1080 5 320 36 626
94 950 182 633 171 1210 188 1818 55 396 -87 823 -261 1157 -472 66 -41 170
-107 230 -145 793 -500 1739 -844 2690 -977 362 -51 518 -60 975 -60 430 0
590 9 910 50 2884 369 5244 2487 5915 5307 143 605 190 1053 182 1733 -5 448
-17 605 -72 959 -283 1825 -1253 3438 -2730 4543 -77 58 -184 134 -238 170
l-97 65 2 1496 3 1496 26 55 c33 70 99 136 169 169 46 22 69 26 145 26 78 0
97 -4 146 -28 68 -33 132 -100 165 -172 20 -42 26 -80 34 -183 10 -149 27
-229 70 -339 167 -434 610 -706 1078 -662 133 12 235 40 347 93 256 121 434
310 538 571 53 133 70 241 69 425 -3 429 -127 862 -354 1239 -306 505 -826
906 -1393 1071 -872 254 -1795 20 -2430 -615 -123 -122 -279 -315 -340 -420
-15 -25 -31 -43 -35 -38 -3 4 -32 46 -63 93 -346 522 -913 903 -1532 1030
-239 49 -554 63 -788 35z m498 -706 c123 -15 330 -69 449 -118 525 -215 926
-691 1045 -1242 27 -126 45 -305 39 -389 -17 -239 -268 -392 -479 -293 -78 37
-140 97 -175 170 -21 45 -27 79 -34 177 -11 140 -22 205 -52 296 -47 145 -131
283 -242 398 -206 213 -462 322 -759 322 -386 0 -719 -191 -915 -525 -47 -79
-83 -171 -115 -289 l-22 -81 -5 -2570 -5 -2570 -28 -56 c-32 -67 -109 -142
-174 -171 -144 -64 -325 -10 -415 122 -73 108 -68 -100 -68 2645 0 1582 4
2511 10 2584 54 611 414 1142 960 1416 171 86 351 143 534 170 114 16 333 18
451 4z m4185 0 c430 -53 827 -260 1103 -574 258 -295 405 -641 437 -1033 15
-182 -6 -265 -90 -356 -131 -142 -351 -146 -488 -9 -56 56 -91 126 -98 192
-20 217 -28 273 -50 348 -110 378 -427 665 -820 739 -120 22 -336 16 -449 -14
-182 -48 -326 -127 -457 -251 -168 -159 -251 -302 -320 -551 -10 -35 -13 -609
-18 -2620 l-5 -2575 -33 -67 c-38 -77 -92 -130 -171 -167 -75 -35 -200 -36
-274 -3 -66 30 -138 101 -173 169 l-29 58 0 2590 c0 2862 -5 2635 61 2862 162
564 581 1001 1135 1187 95 31 267 69 359 79 79 8 301 6 380 -4z m-4273 -1411
c72 -27 154 -102 189 -175 22 -44 28 -75 35 -183 21 -303 125 -529 334 -728
277 -264 654 -349 1043 -236 l22 6 0 -371 0 -371 -1045 0 -1046 0 3 908 3 907
33 67 c81 166 261 239 429 176z m1623 -3113 l0 -345 -1045 0 -1045 0 0 345 0
345 1045 0 1045 0 0 -345z m-4200 -542 l0 -378 -123 -62 c-153 -78 -296 -161
-507 -293 -525 -330 -1046 -549 -1630 -684 -445 -102 -925 -147 -1361 -126
-444 21 -725 67 -1249 203 -198 51 -398 89 -610 114 -203 24 -695 24 -902 0
-892 -106 -1675 -450 -2328 -1024 -1270 -1117 -1745 -2891 -1205 -4500 514
-1532 1859 -2627 3475 -2828 173 -22 628 -31 816 -16 292 23 531 65 854 151
483 129 872 180 1364 180 502 0 937 -61 1405 -195 503 -145 924 -336 1389
-632 865 -551 1711 -834 2697 -904 217 -15 755 -6 955 16 1072 117 2060 521
2893 1182 361 287 728 664 1002 1028 564 752 928 1628 1064 2565 42 285 55
474 55 800 1 335 -10 495 -50 783 -142 1016 -563 1973 -1216 2766 -112 135
-350 392 -420 453 l-58 50 0 449 c0 247 3 449 6 449 4 0 50 -35 103 -77 698
-562 1279 -1286 1680 -2098 346 -699 547 -1410 628 -2225 21 -219 24 -821 5
-1040 -95 -1060 -406 -1988 -959 -2870 -370 -588 -898 -1170 -1458 -1605 -752
-584 -1618 -987 -2555 -1189 -274 -59 -610 -105 -925 -127 -219 -15 -786 -6
-990 16 -1027 109 -1946 431 -2800 982 -466 300 -900 490 -1400 613 -363 89
-655 123 -1055 123 -471 0 -718 -35 -1320 -191 -424 -109 -763 -152 -1210
-152 -440 0 -791 43 -1195 146 -1583 401 -2853 1556 -3404 3093 -255 711 -344
1502 -251 2247 93 750 348 1444 764 2079 307 468 719 904 1178 1246 589 440
1301 750 2023 884 734 136 1444 105 2195 -95 296 -78 527 -121 815 -151 178
-19 655 -16 845 4 457 50 875 156 1277 323 266 111 427 196 753 400 107 66
262 159 344 204 127 71 216 115 541 270 22 10 43 19 48 19 4 1 7 -169 7 -376z
m4200 -858 l0 -345 -1045 0 -1045 0 0 345 0 345 1045 0 1045 0 0 -345z m-4200
-527 c0 -329 23 -458 115 -643 139 -282 378 -474 691 -556 75 -20 113 -24 249
-24 136 0 174 4 249 24 318 83 560 281 698 569 l50 102 1109 0 c943 0 1109 -2
1109 -14 0 -29 94 -200 151 -276 140 -185 352 -323 589 -383 69 -17 115 -21
245 -21 130 0 176 4 245 21 228 58 433 188 583 373 22 27 40 41 44 35 5 -6 53
-65 108 -130 532 -636 906 -1450 1044 -2276 52 -310 65 -473 65 -814 0 -342
-12 -503 -65 -818 -221 -1320 -988 -2506 -2106 -3255 -686 -460 -1473 -736
-2303 -808 -231 -20 -730 -15 -945 11 -744 87 -1440 330 -2045 713 -297 187
-455 279 -680 391 -643 320 -1288 507 -2035 588 -204 22 -886 25 -1095 5 -341
-33 -693 -96 -1013 -182 -379 -101 -568 -130 -918 -137 -275 -6 -441 4 -638
38 -708 122 -1365 463 -1876 974 -986 986 -1291 2455 -778 3749 451 1140 1470
1962 2677 2161 207 34 348 45 566 45 329 0 578 -34 955 -130 362 -93 596 -136
955 -177 224 -25 946 -25 1170 0 488 56 851 134 1280 277 489 163 853 337
1369 658 90 56 168 102 173 102 4 0 8 -87 8 -192z"/>
<path d="M9409 10655 c-324 -53 -571 -180 -808 -415 -117 -116 -170 -157 -264
-200 -86 -40 -164 -59 -288 -69 -129 -11 -195 -38 -263 -111 -73 -78 -91 -126
-91 -245 0 -91 3 -105 29 -158 36 -70 99 -130 174 -165 53 -25 66 -27 187 -26
262 3 516 84 754 242 47 31 145 114 221 187 148 143 217 189 348 233 67 22 94
26 207 26 113 0 140 -4 207 -26 131 -44 200 -90 348 -233 241 -232 442 -342
740 -406 148 -32 409 -32 557 -1 242 52 445 151 635 309 42 35 95 86 119 114
90 107 235 194 386 230 169 41 366 9 520 -82 31 -19 118 -92 193 -164 153
-146 244 -213 387 -284 190 -95 391 -144 593 -145 115 -1 129 1 181 25 79 37
133 90 171 167 30 61 33 75 33 162 0 85 -3 101 -28 150 -37 72 -96 131 -163
164 -42 21 -79 29 -162 36 -126 11 -204 30 -289 70 -95 44 -147 83 -279 211
-218 211 -437 331 -714 390 -86 19 -137 23 -285 23 -200 1 -290 -13 -448 -66
-213 -70 -381 -175 -566 -353 -71 -68 -153 -139 -182 -158 -236 -150 -509
-152 -756 -6 -31 19 -109 86 -174 149 -64 63 -153 141 -197 173 -158 114 -345
196 -540 237 -128 28 -373 35 -493 15z"/>
<path d="M5215 8559 c-309 -48 -557 -174 -795 -404 -69 -67 -145 -135 -170
-152 -117 -79 -231 -116 -403 -132 -86 -8 -120 -15 -163 -37 -146 -74 -224
-253 -180 -410 31 -106 93 -178 196 -228 62 -29 71 -31 180 -30 198 2 411 54
595 146 136 68 245 147 375 274 69 66 147 135 173 153 225 153 523 161 759 21
45 -27 110 -82 178 -150 213 -214 413 -332 675 -400 496 -128 993 10 1364 378
203 201 349 271 567 272 208 0 414 -96 551 -258 54 -64 185 -169 289 -232 214
-130 460 -201 704 -204 105 -1 120 1 172 26 150 70 231 218 208 381 -16 112
-80 203 -180 256 -53 28 -77 34 -168 42 -142 12 -208 30 -321 85 -82 40 -110
62 -220 168 -189 182 -319 270 -508 346 -156 62 -291 90 -468 97 -229 9 -417
-24 -609 -106 -187 -80 -313 -167 -473 -327 -144 -145 -225 -196 -365 -233
-150 -40 -278 -36 -420 13 -111 39 -173 82 -318 222 -240 230 -448 345 -740
409 -88 20 -394 29 -485 14z"/>
<path d="M13295 8564 c-98 -15 -243 -50 -325 -81 -201 -74 -343 -168 -536
-354 -117 -112 -145 -133 -226 -173 -112 -55 -178 -73 -320 -85 -91 -8 -115
-14 -168 -42 -260 -138 -243 -510 28 -637 52 -25 67 -27 172 -26 256 3 516 82
735 225 98 63 172 126 290 244 51 51 118 106 155 128 235 136 536 127 757 -24
26 -18 104 -87 173 -154 187 -181 353 -283 573 -354 285 -91 617 -87 895 10
213 76 363 172 558 360 127 122 154 143 236 184 121 59 211 78 348 72 193 -8
336 -73 480 -217 168 -169 268 -244 429 -325 189 -95 397 -146 601 -149 106
-1 119 1 175 27 78 37 147 104 181 181 24 51 28 75 29 146 0 77 -3 92 -33 152
-62 127 -155 185 -322 199 -135 13 -234 40 -334 91 -63 33 -108 69 -218 175
-210 201 -389 310 -623 378 -327 95 -689 67 -995 -76 -173 -81 -290 -167 -455
-333 -129 -131 -247 -194 -415 -224 -149 -26 -326 9 -472 95 -35 20 -122 94
-198 167 -74 72 -169 154 -210 181 -154 103 -333 179 -520 220 -73 16 -377 29
-445 19z"/>
</g>
</svg>
